<?xml version="1.0" encoding="UTF-8" standalone="no"?>
<!-- Created with Inkscape (http://www.inkscape.org/) -->

<svg
   xmlns:dc="http://purl.org/dc/elements/1.1/"
   xmlns:cc="http://creativecommons.org/ns#"
   xmlns:rdf="http://www.w3.org/1999/02/22-rdf-syntax-ns#"
   xmlns:svg="http://www.w3.org/2000/svg"
   xmlns="http://www.w3.org/2000/svg"
   xmlns:sodipodi="http://sodipodi.sourceforge.net/DTD/sodipodi-0.dtd"
   xmlns:inkscape="http://www.inkscape.org/namespaces/inkscape"
   width="661.287719727"
   height="757.102661133"
   id="svg2"
   version="1.1"
   inkscape:version="0.48.4 r9939"
   sodipodi:docname="gjh_logo-inverse-footer.svg"
   inkscape:export-filename="/var/www/newpage/ibpage/img/gjh_logo-inverse-footer.png"
   inkscape:export-xdpi="11.8900003433"
   inkscape:export-ydpi="11.8900003433">
  <defs
     id="defs4">
    <filter
       id="filter4226"
       inkscape:label="Drop Shadow"
       color-interpolation-filters="sRGB">
      <feFlood
         id="feFlood4228"
         flood-opacity="0.75"
         flood-color="rgb(0,0,0)"
         result="flood" />
      <feComposite
         id="feComposite4230"
         in2="SourceGraphic"
         in="flood"
         operator="in"
         result="composite1" />
      <feGaussianBlur
         id="feGaussianBlur4232"
         stdDeviation="8"
         result="blur" />
      <feOffset
         id="feOffset4234"
         dx="4"
         dy="4"
         result="offset" />
      <feComposite
         id="feComposite4236"
         in2="offset"
         in="SourceGraphic"
         operator="over"
         result="composite2" />
    </filter>
    <filter
       id="filter4203"
       style="color-interpolation-filters:sRGB;"
       inkscape:label="Drop Shadow">
      <feFlood
         id="feFlood4205"
         flood-opacity="0.75"
         flood-color="rgb(255,255,255)"
         result="flood" />
      <feComposite
         id="feComposite4207"
         in2="SourceGraphic"
         in="flood"
         operator="in"
         result="composite1" />
      <feGaussianBlur
         id="feGaussianBlur4209"
         in="composite"
         stdDeviation="8"
         result="blur" />
      <feOffset
         id="feOffset4211"
         dx="0"
         dy="0"
         result="offset" />
      <feComposite
         id="feComposite4213"
         in2="offset"
         in="SourceGraphic"
         operator="over"
         result="composite2" />
    </filter>
    <filter
       id="filter3763"
       style="color-interpolation-filters:sRGB;"
       inkscape:label="Drop Shadow">
      <feFlood
         id="feFlood3765"
         flood-opacity="0.75"
         flood-color="rgb(255,255,255)"
         result="flood" />
      <feComposite
         id="feComposite3767"
         in2="SourceGraphic"
         in="flood"
         operator="in"
         result="composite1" />
      <feGaussianBlur
         id="feGaussianBlur3769"
         in="composite"
         stdDeviation="5"
         result="blur" />
      <feOffset
         id="feOffset3771"
         dx="0"
         dy="0"
         result="offset" />
      <feComposite
         id="feComposite3773"
         in2="offset"
         in="SourceGraphic"
         operator="over"
         result="composite2" />
    </filter>
    <filter
       id="filter4059"
       style="color-interpolation-filters:sRGB;"
       inkscape:label="Drop Shadow">
      <feFlood
         id="feFlood4061"
         flood-opacity="0.75"
         flood-color="rgb(0,0,0)"
         result="flood" />
      <feComposite
         id="feComposite4063"
         in2="SourceGraphic"
         in="flood"
         operator="in"
         result="composite1" />
      <feGaussianBlur
         id="feGaussianBlur4065"
         in="composite"
         stdDeviation="8"
         result="blur" />
      <feOffset
         id="feOffset4067"
         dx="4"
         dy="4"
         result="offset" />
      <feComposite
         id="feComposite4069"
         in2="offset"
         in="SourceGraphic"
         operator="over"
         result="composite2" />
    </filter>
  </defs>
  <sodipodi:namedview
     id="base"
     pagecolor="#ffffff"
     bordercolor="#666666"
     borderopacity="1.0"
     inkscape:pageopacity="0.0"
     inkscape:pageshadow="2"
     inkscape:zoom="0.494974746699"
     inkscape:cx="421.762974526"
     inkscape:cy="402.840037121"
     inkscape:document-units="px"
     inkscape:current-layer="layer1"
     showgrid="false"
     fit-margin-top="0"
     fit-margin-left="0"
     fit-margin-right="0"
     fit-margin-bottom="0"
     inkscape:window-width="1366"
     inkscape:window-height="713"
     inkscape:window-x="0"
     inkscape:window-y="27"
     inkscape:window-maximized="1" />
  <metadata
     id="metadata7">
    <rdf:RDF>
      <cc:Work
         rdf:about="">
        <dc:format>image/svg+xml</dc:format>
        <dc:type
           rdf:resource="http://purl.org/dc/dcmitype/StillImage" />
        <dc:title></dc:title>
      </cc:Work>
    </rdf:RDF>
  </metadata>
  <g
     inkscape:label="Layer 1"
     inkscape:groupmode="layer"
     id="layer1"
     transform="translate(-26.8925176351,-246.364782185)">
    <path
       style="fill:#dcdcc8;fill-opacity:1;stroke:none;stroke-opacity:1;filter:url(#filter4059)"
       d="m 120.028094918,882.59963917 c 0.105465566,-0.393659793 -8.105037122,-3.286594918 -11.032717226,-8.539383229 17.767233711,-28.113255362 36.79744013,-57.193163272 48.315322242,-75.104971685 1.654979095,0 3.083708263,-1.683149516 1.741780612,-4.142376049 C 147.789329443,769.894499234 92.13996503,536.908351765 82.126182594,500.61873629 l -0.126355542,-54.827973523 c 4.568389192,-5.383835133 33.317694209,-35.574397295 35.078578869,-33.285669152 5.607062899,-0.0670418 4.619753274,4.73872196 9.658014818,4.775087363 12.070246692,-0.0056647 17.074986042,1.634657026 21.337096258,6.360198803 12.904723908,-0.01260407 26.208077958,-0.292634739 51.057828345,-0.185095525 l -0.101584192,-59.878807205 33.97023885,0 0,60 8,0 0,-63.839266636 95.012690684,-24.756949466 c 0,0 0.03492152,41.653690383 -0.178174623,86.643520504 0.0066871,1.729519198 6.337550859,3.252012163 6.32047715,1.081585867 -0.14211006,-60.714708261 1.103257787,-86.128890269 1.103257787,-86.128890269 l 28.483328144,0 c 0,0 1.36832653,10.834550289 1.170269386,85.94319387 0.201197637,1.585126213 5.757387707,1.493106549 5.93796274,-0.769620396 0.09721607,-24.756381312 0.137498048,-86.907390628 0.137498048,-86.907390628 L 474,359.737210415 l 0,63.839266636 8,0 0,-60 33.97023885,0 0.02468488,59.878807205 c 0,0 28.460121789,0.15540577 51.027960149,0.21464565 4.761679349,-5.482070322 8.283272621,-6.235834245 19.216753721,-5.949321175 9.925865938,-1.374388656 5.774479418,-7.033243111 13.303059097,-5.0906053 4.846510766,4.370899369 27.32961295,25.002882145 33.488114269,33.250045051 0.11488914,18.424873021 -0.03559778,37.299538384 -0.0924987,54.905783285 -25.529798549,98.175477281 -63.087567191,258.059797644 -76.750446102,293.757860043 -1.341927651,2.459226533 -0.102602086,4.521183255 1.552377009,4.521183255 4.55199413,6.869168136 24.607290874,37.995114349 48.534956619,74.720466542 0.283403517,2.506034842 -4.439429743,5.264230195 -7.272698563,7.155802533 -160.461265991,74.813341797 -306.395790734,82.971556064 -478.974406311,1.65849503 z M 590.535714287,871.74806294 C 565.954166214,836.679133588 557.683205057,816.618119866 552.642857142,814.897129663 443.16158046,882.688749712 275.350830631,881.041624844 162,815.611415379 c -0.828536771,0.01201926 -5.701630456,6.611791404 -10.886136744,14.743410794 -5.16237521,8.096907983 -23.502127569,37.607365204 -26.350243307,42.007365204 164.12263195,80.554180665 313.352803012,74.819122627 465.772094338,-0.614128437 z M 347.063578385,918.007822393 347,900.033080834 l -19,-0.45660378 0,17.132844691 -6.005076273,-0.254037486 -0.03766073,-40.01577583 5.928095208,0.318484312 0.235834585,15.924366615 L 347,893.576477049 l 0,-15 6.021371008,0 0.405610778,39.597486009 z m 18.015079861,0.622226089 c 0,0 -0.03280234,-10.103571431 -0.221196756,-20.553571431 l -0.342535303,-19.357142858 5.992536906,-0.28432335 c 9.955539856,-0.472352943 17.848030781,-0.902182034 20.437795111,0.408449234 1.344892013,0.680624682 3.318515306,2.732722167 4.38582954,4.560216635 1.683976473,2.883366105 1.786117933,3.838236723 0.772473726,7.221479552 -0.720516124,2.404868488 -2.488893408,4.906182408 -4.615108862,6.527925996 l -3.447011252,2.629163656 4.325966342,5.647115567 c 5.012498143,6.543314038 6.642690117,10.006849177 6.642690117,10.006849177 l -6.87805626,1.076019545 c 0,0 -0.09313686,-0.127252017 -4.608262669,-6.454633823 -5.524305868,-7.741620918 -7.235223789,-9.484017066 -11.720861998,-9.47832777 l -4.838631175,0.006137 -0.04880632,17.99107143 z M 388.173359234,891.9195891 C 389.178011655,891.010391155 390,889.52624633 390,888.621489489 c 0,-3.19838766 -2.239519721,-4.045012438 -10.7,-4.045012438 l -8.3,0 0,5.146736013 0,5.146736014 7.673359234,-0.648636402 c 4.981313498,-0.421075199 8.31419988,-1.228589216 9.5,-2.301723576 z m 28.847203772,20.598354202 c -10.869408348,-4.588836598 -13.393495144,-22.364763887 -4.828086331,-34.001886025 3.488838042,-4.739999607 9.664301784,-7.949823285 15.549989135,-8.082425127 6.247128685,-0.14074495 10.312192017,2.116104899 13.260564845,7.362026448 1.893633456,3.369266075 2.141630172,5.080705043 1.824368993,12.590070689 -0.312955761,7.407459227 -0.771215488,9.316816027 -3.103448349,12.930637082 -1.5049514,2.331939124 -4.462464785,5.382227484 -6.572251966,6.778418577 -4.323794339,2.861351703 -12.266940164,4.05454106 -16.131136327,2.423158356 z m 12.220593758,-7.126171546 C 433.798097718,903.645222586 436.5,898.114271641 436.5,890.532497933 c 0,-10.44088217 -4.472445604,-15.117616803 -12.412586149,-12.979558988 -6.508082123,1.752444528 -10.118240093,7.399573931 -10.317301155,16.138666286 -0.142263314,6.245582294 1.73919365,10.393090865 5.566933353,12.271821377 3.137079697,1.539740892 4.618310696,1.454245797 9.904110715,-0.571654852 z m -142.205744334,6.381223663 -2.678669789,-6.733746504 c 0,0 -0.96926786,-4.592852895 -1.904554499,-5.598713975 -1.48428749,-1.596288194 -4.303957657,-1.225220001 -10.516276303,-2.279865562 l -3.564088162,-0.605063902 -1.737011862,5.510435787 c -1.589391092,5.042128813 -2.034261402,5.889242993 -2.034261402,5.889242993 l -6.105626686,-1.287572829 13.502942321,-39.180048167 6.504413526,1.292181903 c 0,0 0.481172457,1.972793784 4.571360993,13.804834094 2.565170281,7.420488787 4.928780115,14.166797794 5.252466298,14.991797794 1.017730447,2.593955695 5.178969408,14.594723644 5.178969408,14.594723644 z m -9.365001109,-27.712979249 -2.348102519,-6.960919362 -2.161154401,5.776202729 C 271.97251948,886.052211037 271,889.058139457 271,889.55514047 c 0,1.008710792 8.350960665,2.95910065 8.75925692,2.045748572 0.142591306,-0.318974431 -0.797389214,-3.712367223 -2.088845599,-7.540872872 z m 176.364910004,23.607408624 c 0,0 -0.03532132,-10.751136114 -0.03532132,-22.150625605 0,-17.977224768 -0.05971042,-21.585871471 -0.05971042,-21.585871471 l 6.910456698,-0.395834116 c 0,0 4.250968919,5.911888862 8.805412531,12.145138493 L 478.5,887.783987139 l 0.275328483,-15.59106006 0.275328482,-15.591060061 6.622335881,-1.453497411 c 0,0 -0.197749996,11.011294583 0.08772655,22.847542131 l 0.528179296,21.899035125 -6.876428263,1.787783107 c 0,0 0.04063636,0.289840483 -3.068234031,-4.363390284 C 474.779906379,894.977914135 470.8,889.342317121 467.5,884.795790764 l -6,-8.266411556 -0.276933478,14.558539858 -0.276933478,14.558539859 -2.538166183,0.965009063 z m -207.746494896,-3.428346153 c 0,0 -1.592638968,-2.90821507 -4.97486347,-8.972090218 -5.823036093,-10.439923142 -7.609851356,-12.399689051 -12.129580185,-13.303634817 L 226,881.326477051 l 0,9.625 c 0,5.739695483 -0.142875255,9.84775058 -0.142875255,9.84775058 l -6.057492999,-2.258647155 0.270927734,-46.061502491 c 0,0 21.963968849,7.054573094 24.742396822,9.017365334 2.92094425,2.063471418 6.125380029,9.086619899 6.165081698,12.428904609 0.0410538,3.456114364 -3.088182953,8.454111969 -6.065143245,9.687209297 l -2.946781203,1.220596739 2.057648729,3.121661544 c 6.76792069,10.267621219 9.570599707,17.79566412 9.570599707,17.79566412 z M 244,873.152077255 c 0,-3.495563312 -2.80803335,-6.030310277 -9.338984089,-8.430085621 -4.869409315,-1.789247673 -8.471756568,-2.426627259 -8.471756568,-2.426627259 0,0 -0.189259343,3.042991666 -0.189259343,5.753177786 l 0,5.47206511 5.25,1.465002394 c 10.090682502,2.815785527 12.75,2.433358482 12.75,-1.83353241 z m -53.796282759,18.296209494 c -5.316216512,-2.63146926 -8.772720409,-7.033589343 -10.122566658,-12.891857005 -0.567742245,-2.463973981 -1.043259318,-12.917452693 -1.056704605,-23.229952693 -0.023286,-17.860302313 0.01008943,-18.876269068 0.01008943,-18.876269068 l 6.342953943,2.071466978 c 0,0 0.215341955,7.364033734 -0.114247243,16.861689178 -0.302530108,8.717903206 -0.242616085,17.489522031 0.133142273,19.492486279 1.516360712,8.082897502 10.354449683,13.394237019 14.834027126,8.914659575 1.856459077,-1.856459077 2.083585565,-3.585234364 2.480298521,-18.878814326 0.240186546,-9.259370239 0.324203555,-19.089294668 0.324203555,-19.089294668 L 209,847.897507092 l 0,17.319248535 c 0,13.473895582 -0.351867635,18.198652325 -1.584791588,21.280032628 -2.867241144,7.16594106 -9.109687433,8.961803086 -17.211491171,4.951498494 z m 311.565617042,-0.06298084 c -1.501866145,-1.269855872 -3.471227133,-4.108828858 -4.376357751,-6.308828858 -1.986399089,-4.828118624 -2.218220635,-17.076746337 -0.443950551,-23.45677151 2.645228609,-9.511869289 10.873221382,-17.673187319 18.90344915,-18.750266882 3.349565063,-0.449270952 4.405360931,-0.126034637 6.530839296,1.999443728 1.958342725,1.958342725 4.287486734,5.769692441 3.753289389,7.974646978 -0.503399148,2.077831812 -5.752091865,4.071218376 -5.752091865,4.071218376 0,0 0.860144217,0.262468745 -1.141573064,-3.255307604 -1.906817328,-3.351001142 -4.808121538,-3.876296266 -9.144098927,-1.634075216 -5.965182025,3.08471551 -9.846789658,14.334209317 -8.108561099,23.499852762 C 502.545625487,878.453549025 503,880.995506298 503,881.174011622 c 0,1.422629251 4.95491549,4.402465429 7.320484366,4.402465429 3.806498137,0 9.12926836,-5.504430654 10.351175085,-10.704449576 0.778796187,-3.31429136 1.419025365,-4.19726122 1.419025365,-4.19726122 l 5.938594305,0.02436949 c 0,0 -0.468310134,1.953817837 -0.677273162,3.064916221 -1.100680939,5.852541586 -5.186348279,13.230234551 -8.996075532,16.244661548 -5.135493793,4.06343292 -12.669347162,4.688699559 -16.586596144,1.376592395 z m 32.90370261,-7.006956495 c 0,0 5.963084769,-27.273280896 10.19929918,-41.720382749 1.576954899,-5.378015803 3.093374938,-10.890776307 3.093374938,-10.890776307 l 5.980267687,-1.198979214 c 0,0 1.43909267,3.673817566 5.750746451,17.008265907 9.675562723,29.923156599 8.868061545,27.751513307 8.868061545,27.751513307 l -6.221125512,2.704610728 c 0,0 -1.289143393,-3.912379335 -1.984437988,-6.206124035 -2.503192758,-8.2579171 -3.234223163,-8.48904202 -3.234223163,-8.48904202 l -12.667009819,3.816373133 c 0,0 -1.313957807,4.372786891 -2.090539749,8.116293406 -1.35058716,6.510493692 -1.260355495,8.075252062 -1.260355495,8.075252062 z M 553.75,857.454801907 c 2.686220861,-0.98951203 2.64569313,-0.426090808 0.585768604,-8.143423194 -1.924917,-7.211538149 -3.802521985,-10.054736416 -4.686360628,-7.096408735 C 548.749896869,845.225755516 546,857.615569947 546,858.657582102 c 0,0.946172643 3.311384239,0.432254272 7.75,-1.202780195 z m -400.517791404,23.893241755 c -3.427063134,-1.651840456 -6.347413127,-6.735082375 -6.839950937,-13.091158167 -0.224087363,-2.891790708 -0.525383457,-6.200803724 -0.525383457,-6.200803724 l 7.128461838,2.224028811 c 0,0 0.004664,2.095281064 0.004664,3.176562665 0,4.857135745 5.8371879,8.224458519 7.574969077,4.369803804 0.433920677,-0.9625 1.044565639,-10.744808177 1.356988804,-21.738462615 0.494257558,-17.392105947 0.0500904,-21.310101529 0.0500904,-21.310101529 l 6.911802982,3.203927212 c 0,0 0.360419162,2.37895655 -0.787658767,26.607941995 -0.779810903,16.457094539 -1.576673201,20.061546135 -5.019535315,22.704891565 -1.948484638,1.495998909 -6.806845888,1.52231095 -9.854448625,0.05336998 z M 93.315672671,458.090045895 c -0.505076274,-1.905749946 -2.442766958,-1.639837912 -3.267766958,-1.639837912 -0.01190751,4.934437976 -0.09918359,18.647774904 -0.03143269,48.177877786 28.072007373,106.330011833 61.53122685,242.304499523 75.988254097,292.986649938 4.377452687,0.0052398 7.183535943,-0.05084841 11.154183413,-0.03825866 C 146.320290363,675.840232525 116.623109424,552.300616354 93.315672671,458.090045895 z m 196.784135041,327.486431156 c 0,0 -38.920445581,-0.104972707 -93.672703043,-0.360332713 -55.620252835,-231.590578178 -79.356243942,-348.025012301 -83.86716529,-354.276088902 -7.478724718,6.060915281 -14.938435263,12.338151181 -14.826472928,15.077265952 25.817794741,105.870284688 54.158484143,223.004947586 85.983342083,351.576576173 35.42942258,-0.172473503 106.28826774,0.0507903 106.28826774,0.0507903 z M 617,443.974684645 c -4.693020703,-5.04155261 -9.264971534,-8.590564585 -15.347194244,-13.012964862 -23.536787447,98.799860752 -59.73732649,258.711361877 -82.856696139,354.56823872 C 482.916692073,785.784247688 425,785.576477051 425,785.576477051 l -0.04761905,12.09992141 c 0,0 66.640939293,-0.09992141 106.837548101,-0.09992141 C 568.181737878,649.596526646 592.724044553,551.353698348 617,443.974684645 z m -67.369938812,353.025883234 c 9.473147466,-35.947999358 53.278932553,-205.753748578 75.30771403,-291.7278568 0.175758975,-24.503629249 0.09563619,-37.738058797 0.15767177,-48.832113618 -1.907055359,-0.499873887 -2.731868603,0.13587959 -2.731868603,0.13587959 0,0 -58.731667181,237.997803116 -84.522488917,341 3.780843714,-0.379434673 8.225684554,0.65333018 11.78897172,-0.575909172 z M 352.022179645,786.541975138 c -0.329757029,-15.179623136 -1.043681776,-45.927948316 -1.043681776,-45.927948316 0,0 -27.045496605,-0.02383534 -34.738215278,0.404326614 -3.94324184,9.682233421 -8.102923745,23.59404986 -9.307212648,29.695209959 -0.924195978,2.659003022 -2.183139882,9.198873396 0.829446194,9.844264251 10.350731674,0.09183319 19.933136573,0.01199156 31.197231708,0.07670767 l 2.907899292,2.176712919 c 3.454743135,5.38094564 7.619674537,5.336064781 10.154532508,3.730726903 z m 20.274853639,-3.001212374 3.603835049,-2.964285713 c 0,0 20.1180339,0.09218096 30.270442024,0.06077202 3.276408546,-0.01013637 2.887106525,-4.922060679 2.441202217,-6.863583153 -2.159756277,-7.762058331 -5.273727809,-22.620047231 -9.646015834,-33.090046012 -11.410473194,-0.08302415 -34.8829951,-0.01912621 -34.8829951,-0.01912621 0,0 -0.936075251,29.655430584 -1.040688244,45.914464795 2.513632232,1.591895511 6.839749953,2.051918412 9.254219888,-3.038195727 z m -70.716370868,-48.964285713 c 0.320393876,-1.000812445 -0.777895576,-2.053902365 -3.300230869,-3.164411581 C 287.549266245,725.999957099 277.275504675,723.566631717 267.5,716.614293256 c 3.93629634,-3.815719018 8.413076125,-6.753134711 13.187681825,-9.324429637 5.391211764,3.326519798 20.292507835,14.058702647 24.703598558,12.966706664 0.835097831,-0.320457106 2.591318037,-2.416775958 3.657770368,-4.776240646 3.567339088,-7.892533368 11.029478609,-16.937356783 15.701088326,-21.275436603 4.603048237,-4.274413292 19.289628783,-11.586255405 21.903263107,-11.613565253 0.781692631,-0.0081679 5.353103815,-1.76974768 5.285624102,-3.121932579 C 352.063995229,650.667031512 352,602.576477051 352,602.576477051 l 11,0 c 0,0 0.04291169,59.477015728 0.01348967,76.845434109 -0.03677485,1.132076439 3.478526762,3.161248719 4.355783603,3.169416621 2.753319955,0.02563542 18.062502592,7.244771413 22.723680566,11.197774694 4.862126139,4.123421308 12.469227749,15.048693797 15.857995408,21.691227162 1.176675872,2.30647525 3.075210674,4.960859813 3.910308505,5.281316919 4.296437399,0.53218529 15.929307946,-7.772274017 24.336191603,-13.393777011 11.472131321,5.880190054 9.443889362,5.791594118 13.55508878,9.372692779 -6.629155173,5.355212762 -31.097874185,14.818499069 -34.949608494,16.320685907 4.563170149,12.996412083 11.290759595,27.8631899 11.257068929,35.658085954 l 0.104119718,10.857142866 c 0,0 37.307854405,-0.0092384 87.058296234,-0.178571426 25.769104662,-107.221018512 64.844394776,-286.255248748 83.4456985,-352.142501034 -2.330810962,-3.835841743 -20.692085334,-0.924636309 -21.958720294,3.360006967 -64.269131005,-0.05721989 -134.600471096,-1.735923889 -190.966775771,-2.948047174 C 375.371910268,433.100359946 369.099503175,438.642214077 363,444.376477051 c 0,21.066666667 0,42.133333333 0,63.2 -3.666666667,0 -7.333333333,0 -11,0 0,-21.066666667 0,-42.133333333 0,-63.2 -6.250300092,-5.963743978 -12.18030808,-11.034545911 -18.626193671,-16.60456854 -64.205278769,1.405452512 -130.410405448,2.821263406 -190.887450116,2.817351866 -4.568848832,-3.61156204 -7.289731884,-5.998161541 -15.011847956,-5.940799593 -4.83745557,-0.219827969 -7.133072339,-0.207104024 -5.886275938,6.446229531 7.364707556,18.501378399 58.10027706,247.323617948 82.189353157,348.481786739 31.667996087,0.0620353 49.563808712,-3e-9 87.058296234,-3e-9 -0.121987824,-21.424705747 6.907436543,-33.284925602 10.744780706,-45 z m 164.915869252,-149.75918404 c -5.586680567,0.04227825 -11.10593559,-2.750612295 -14.143519244,-11.651800196 -0.701154172,-2.054628201 -0.483983631,-11.298061561 -0.436721205,-20.785444337 l 0.08370881,-16.803571427 6,0 0,15.875 c 0,17.932783108 0.41774654,21.301472809 3.150103638,24.234313883 2.641712737,2.835545772 8.861333147,2.817916827 11.4449088,-0.03243955 1.686972558,-1.861169801 2.358639755,-4.408591033 2.404987562,-20.928571429 l 0.05357143,-19.094731477 5.946428573,-0.0078447 0,18.986721794 c 0,12.873178819 0.744287767,18.0430265 -0.934972661,22.23780834 -2.873139389,7.177083872 -8.987140815,7.935888838 -13.568495703,7.970559099 z M 202,583.808215832 c -6.027057388,-2.940154417 -9.082580257,-6.89078877 -11.504993541,-14.87536656 -1.89326167,-6.240427751 -2.048309131,-10.132099962 -0.06550284,-18.02569081 2.838297468,-11.299318049 10.418164174,-17.350100203 20.070382211,-16.262155365 5.134846995,0.578771662 8.651084732,2.941531935 11.611002948,7.710485609 2.089128436,3.365956761 2.162926152,5.316859231 1.845303905,7.978300901 -1.962454053,1.593910994 -3.176212176,2.358616786 -4.097053356,2.332445585 -1.21319124,-0.03448007 -1.929253469,-1.340408789 -2.418428195,-4.411527648 -0.353002971,-2.216210327 -2.282926404,-3.785641934 -4.765851792,-5.018161565 -10.955800462,-5.438439353 -20.650109623,8.593606883 -16.292632441,23.58280182 2.040924397,7.020533293 5.191878036,10.195085914 11.335140143,10.724310764 C 214.465826896,578.125019506 219,574.990864768 219,570.143435066 l 0,-3.462438853 c -3.5,-0.201506387 -7.446428573,0.0434158 -10.946428573,-0.158090589 0,-2.333333334 0,-5.559523812 0,-7.892857146 5.5,-0.193628228 11.446428573,0.05917212 16.946428573,-0.134456113 0,6.304275351 0,12.608550701 0,18.912826052 l -4.181210272,3.57943697 c -3.533444343,3.024899608 -5.021615393,3.433386162 -10.75,3.655053812 C 206.455955378,584.782712748 202.825,584.210672161 202,583.808215832 z m 42.96646436,-20.364272938 -13.998465761,-25.250328277 -0.120418848,-2.572487983 6.181109573,-0.0365795 10.049225414,18.980888077 1.890727126,0.0314395 9.156358128,-18.838564723 L 264,535.720869274 264.02643701,539.118874927 251,563.385207708 l 0,20.191269343 -6,0 z m 27.087107067,-27.813894416 9.232963799,0 c 0,0 6.644501905,31.699543922 8.59342583,32.940716966 1.673718328,-1.18066874 8.281099305,-33.003403029 8.281099305,-33.003403029 l 8.874653926,0.06268606 4.83058e-4,47.946428573 -6.036197345,0 c 0,0 -0.02951111,-17.463594149 -0.06153208,-28.565513478 -2.57893353,-0.350674072 -7.77995672,28.544832948 -7.77995672,28.544832948 l -6.835874559,0.122176612 c 0,0 -4.988884978,-26.480836705 -7.182624974,-29.601496082 -0.09043964,9.088433073 -0.193583099,29.446428573 -0.193583099,29.446428573 l -6.982931469,0.183010884 z M 318,535.576477051 l 6.31751965,0 16.687556624,33.830164805 0.05298199,-33.772106545 L 347,535.569901428 l 0,48.006575623 -5.746568019,0 -17.195373721,-33.75431241 -0.106416177,33.75431241 -5.951642083,0 z m 36.873730932,47.847485731 15.156667521,-47.713557159 4.98288892,0.02041641 15.120641199,47.769018658 -6.776785714,0.07539954 -3.686215003,-13.076967945 -15.166248256,0.04249047 -3.134723702,12.975341839 z m 22.403636517,-20.838557157 -4.99097085,-15.580965679 -5.30370144,15.572037105 z m 16.904829493,20.828121157 -0.07557415,-6.104906855 21.339805782,-33.425181143 -18.303571431,-0.271247446 -0.267099998,-8.094629807 27.159957143,0.112486947 -0.210199199,6.772801 -21.271943661,33.99837419 L 425,576.576477051 l 0,7 z M 433,535.576477051 l 6,0 0,48 -6,0 z m 59.969499637,47.983065685 0.03942893,-48.06342283 9.15649835,0.07026488 c 0,0 5.586977803,23.624021142 6.975717109,30.195923974 0.988697223,4.678791804 2.001227949,3.319199622 2.919737139,-0.68583171 1.868716532,-8.148278034 6.697446289,-29.544642869 6.697446289,-29.544642869 L 528,535.576477051 l 0,48 -3,0 -3,0 -0.206846087,-30.521075176 -7.839389218,30.467503749 -6.925326693,0.129784848 -6.854009743,-29.844070565 -0.138713972,29.803571431 z m -124.032634171,-50.11552325 c 1.497662304,-4.489782315 2.203367185,-10.350948998 4.13175527,-9.867542435 1.873298842,0 2.774652553,-0.0253585 6.057648332,0.07693179 0.324911928,2.619067449 -4.902699766,7.46193604 -5.224618631,9.984414659 -1.2375,9.83446e-4 -4.964784971,-0.01678037 -4.964784971,-0.193804014 z m -23.317381003,193.92860835 5.17804565,-1.203849216 -0.148765056,-13.046150784 L 350.5,700.076477051 l -3.712393315,-0.308123286 c -3.317434749,-0.275342295 -4.2845876,0.256603719 -9.090704935,5 -2.958071391,2.919467807 -5.880648704,6.254891868 -6.49461625,7.412053468 -0.613967546,1.157161601 -2.710650325,4.012237728 -4.659295064,6.344613617 -3.906834458,4.676176374 -4.455343149,7.420679302 -1.792990436,8.971357402 2.413688195,1.405844314 14.601173071,1.333575814 20.869484463,-0.123750416 z m 44.446256991,0.168665457 c 2.855713887,-1.528331692 2.369209411,-4.25498672 -1.60873189,-9.016272443 -1.948644739,-2.332375889 -4.045327518,-5.187452016 -4.659295064,-6.344613617 -0.613967546,-1.1571616 -3.536544859,-4.492585661 -6.49461625,-7.412053468 -4.806117335,-4.743396281 -5.773270186,-5.275342295 -9.090704935,-5 L 364.5,700.076477051 l -0.277647467,13.052169328 -0.277647467,13.052169328 4.277647467,1.048497752 c 5.734590004,1.405610157 19.434314212,1.601277491 21.843388921,0.311979834 z m -190.369707811,-370.427626507 17.875726273,-24.421073214 16.25890735,24.449285534 z m 281.978375364,0.407019524 16.25890735,-24.828092739 18.12826441,24.673611351 z m -139.315906896,-27.153401052 14.96557061,-20.910613195 15.443694236,20.981410183 z"
       id="path3047"
       inkscape:connector-curvature="0"
       sodipodi:nodetypes="ccccccccccccccccccccccccccccccccccccccccccsccccccccccccccccscssssscsccsscccssscccssssssssssssssssccsscsccccssccscsssscsccsccccsccssccccccsscscccssscsccsscscsssssccssssccssssssssscssssssccssscsccsccsccsccsssssssccsssccssscccccccccccccccccccccccccccccccccccccccccccccccsssccccssscccccccccccccccccccccsssccssssccsssssssscsssssscccccsssccccccccccccccccccccccccccccccccccccccccccccccccccccccccccccccccccccccssccccccccccccccccscccssssssssssscccsscccccccccccc"
       transform="matrix(1.09738288693,0,0,1.09738288693,-34.4930428638,-57.8646178391)" />
  </g>
</svg>
