<?xml version="1.0" encoding="UTF-8" standalone="no"?>
<!-- Created with Inkscape (http://www.inkscape.org/) -->

<svg
   xmlns:dc="http://purl.org/dc/elements/1.1/"
   xmlns:cc="http://creativecommons.org/ns#"
   xmlns:rdf="http://www.w3.org/1999/02/22-rdf-syntax-ns#"
   xmlns:svg="http://www.w3.org/2000/svg"
   xmlns="http://www.w3.org/2000/svg"
   xmlns:sodipodi="http://sodipodi.sourceforge.net/DTD/sodipodi-0.dtd"
   xmlns:inkscape="http://www.inkscape.org/namespaces/inkscape"
   width="186.17943"
   height="203.53299"
   id="svg2"
   version="1.1"
   inkscape:version="0.48.4 r9939"
   sodipodi:docname="Nadacia_logo.svg">
  <defs
     id="defs4" />
  <sodipodi:namedview
     id="base"
     pagecolor="#ffffff"
     bordercolor="#666666"
     borderopacity="1.0"
     inkscape:pageopacity="0.0"
     inkscape:pageshadow="2"
     inkscape:zoom="2.8"
     inkscape:cx="161.98158"
     inkscape:cy="96.632385"
     inkscape:document-units="px"
     inkscape:current-layer="layer1"
     showgrid="false"
     fit-margin-top="30"
     fit-margin-left="30"
     fit-margin-right="30"
     fit-margin-bottom="30"
     inkscape:window-width="1366"
     inkscape:window-height="713"
     inkscape:window-x="0"
     inkscape:window-y="27"
     inkscape:window-maximized="1" />
  <metadata
     id="metadata7">
    <rdf:RDF>
      <cc:Work
         rdf:about="">
        <dc:format>image/svg+xml</dc:format>
        <dc:type
           rdf:resource="http://purl.org/dc/dcmitype/StillImage" />
        <dc:title></dc:title>
      </cc:Work>
    </rdf:RDF>
  </metadata>
  <g
     inkscape:label="Vrstva 1"
     inkscape:groupmode="layer"
     id="layer1"
     transform="translate(-13.519396,27.909907)">
    <path
       style="fill:#000000"
       d="m 93.845261,145.53883 c -0.0759,-0.0759 -2.519485,-0.5381 -5.430135,-1.02706 -2.91065,-0.48895 -5.6755,-0.99036 -6.14411,-1.11423 -0.46861,-0.12387 -1.727944,-0.44802 -2.79852,-0.72032 -1.070575,-0.27231 -2.628239,-0.74076 -3.461482,-1.04101 -0.83323,-0.30025 -2.32746,-0.76219 -3.3205,-1.02653 -0.99304,-0.26434 -2.48553,-0.66283 -3.31664,-0.88554 -1.46857,-0.39352 -4.84446,-1.63929 -8.10689,-2.99161 -0.88165,-0.36545 -2.63351,-1.07396 -3.89301,-1.57446 -4.49883,-1.78775 -6.02573,-2.48797 -6.84683,-3.13989 -0.45808,-0.36371 -0.80527,-0.76433 -0.77152,-0.89028 0.0613,-0.22863 1.13303,-1.90793 5.67538,-8.89236 2.85145,-4.38445 3.6174,-5.5882 4.57817,-7.1949 0.39541,-0.66124 0.86593,-1.20225 1.04561,-1.20225 0.37899,0 0.41702,-0.2987 0.10971,-0.86186 -0.29794,-0.54601 -1.92977,-5.5129 -2.50058,-7.61115 -1.17558,-4.32133 -6.19141,-24.262221 -8.15062,-32.403528 -0.45465,-1.889251 -1.07719,-4.310928 -1.38342,-5.381504 -0.30624,-1.070576 -0.75667,-2.822427 -1.00096,-3.893003 -0.24429,-1.070576 -0.65077,-2.770903 -0.90329,-3.778503 -0.25252,-1.007601 -0.57213,-2.295727 -0.71026,-2.862503 -0.13812,-0.566775 -0.72134,-2.833877 -1.29605,-5.038004 -1.73429,-6.651388 -1.69985,-6.386904 -1.69987,-13.052926 l -2e-5,-6.068588 3.83578,-3.717155 c 2.24347,-2.174096 4.01977,-3.718855 4.27901,-3.721253 0.24378,-0.0023 0.67666,0.215191 0.96196,0.483216 0.3764,0.353608 0.97734,0.53788 2.19026,0.67162 2.02802,0.223612 2.6425,0.394783 3.39361,0.945325 0.53046,0.38881 1.03911,0.418017 6.29751,0.361607 l 5.72043,-0.06136 0.0607,-6.812756 0.0607,-6.812755 3.8896,0 3.889596,0 0,6.870006 0,6.870005 0.916001,0 0.916001,0 0,-7.309602 0,-7.309602 1.087751,-0.345767 c 0.598263,-0.190173 1.551476,-0.450649 2.118252,-0.578837 0.566775,-0.128188 1.829139,-0.4446 2.805252,-0.703138 0.976113,-0.258537 2.57339,-0.681692 3.549503,-0.940344 0.976113,-0.258651 2.341527,-0.608288 3.034253,-0.7769712 0.692725,-0.168683 2.290003,-0.587681 3.549503,-0.931106 2.47677,-0.675335 4.866414,-1.235738 5.324254,-1.248605 0.22469,-0.0063 0.28625,2.108122 0.28625,9.8309072 0,9.771661 0.003,9.840718 0.48259,10.097223 0.3389,0.181373 0.55461,0.186244 0.7245,0.01635 0.16267,-0.16267 0.22424,-2.829943 0.18797,-8.142585 -0.0297,-4.345369 0.0183,-8.728734 0.10657,-9.7408092 l 0.16051,-1.840131 3.26135,0 3.26134,0 0.16014,1.625165 c 0.0881,0.8938402 0.13643,5.2775862 0.10744,9.7416582 -0.0353,5.444756 0.0267,8.195846 0.18837,8.357559 0.16875,0.168752 0.38582,0.163591 0.72365,-0.0172 0.47928,-0.256515 0.48258,-0.325572 0.48258,-10.097233 0,-7.7214012 0.0616,-9.8377782 0.28625,-9.8335022 0.41124,0.0078 3.64004,0.769526 5.78226,1.364072 1.0076,0.279648 2.39877,0.647159 3.0915,0.81669 0.69273,0.1695322 2.03238,0.5138752 2.977,0.7652072 4.07021,1.082941 5.4422,1.437448 6.41201,1.65679 0.56677,0.128188 1.51999,0.388665 2.11825,0.578837 l 1.08775,0.345767 0,7.309602 0,7.309602 0.916,0 0.916,0 0,-6.870005 0,-6.870006 3.8896,0 3.88959,0 0.0607,6.812756 0.0607,6.812755 5.72044,0.06136 c 5.24589,0.05627 5.7683,0.02648 6.2975,-0.359198 0.67115,-0.489131 2.12221,-0.8846 3.8758,-1.056302 0.79995,-0.07833 1.41264,-0.285513 1.73226,-0.585778 0.272,-0.255526 0.69399,-0.462743 0.93777,-0.46049 0.25925,0.0024 2.03554,1.547157 4.27902,3.721253 l 3.83577,3.717155 -2e-5,6.068589 c -2e-5,6.664474 0.0372,6.378892 -1.70305,13.052926 -0.57473,2.204127 -1.15725,4.471229 -1.29449,5.038004 -0.13723,0.566776 -0.45611,1.854902 -0.70864,2.862503 -0.25251,1.0076 -0.659,2.707927 -0.90329,3.778503 -0.24429,1.070576 -0.69472,2.822427 -1.00095,3.893003 -0.30623,1.070576 -0.92819,3.492253 -1.38211,5.381504 -1.25369,5.217886 -3.77968,15.335802 -5.48841,21.984018 -0.84167,3.274703 -1.71322,6.726882 -1.93677,7.671512 -0.6979,2.94893 -2.71267,9.41595 -3.22734,10.35915 -0.3073,0.56316 -0.26928,0.86186 0.10971,0.86186 0.17968,0 0.65021,0.54101 1.04561,1.20225 0.96077,1.6067 1.72672,2.81045 4.57817,7.1949 4.54235,6.98443 5.61414,8.66373 5.67539,8.89236 0.0337,0.12595 -0.31345,0.52657 -0.77153,0.89028 -0.8211,0.65192 -2.34799,1.35214 -6.84683,3.13989 -1.2595,0.5005 -3.01135,1.20901 -3.893,1.57446 -3.26244,1.35232 -6.63832,2.59809 -8.10689,2.99161 -0.83112,0.22271 -2.32361,0.6212 -3.31665,0.88554 -0.99304,0.26434 -2.48727,0.72628 -3.3205,1.02653 -0.83324,0.30025 -2.3909,0.7687 -3.46148,1.04101 -1.07057,0.2723 -2.32991,0.59645 -2.79852,0.72032 -0.46861,0.12387 -3.25096,0.65563 -6.183,1.18168 l -5.33099,0.95645 -12.72487,0.0706 c -6.998674,0.0388 -12.786984,0.008 -12.862904,-0.0674 z m 26.961779,-2.25421 c 1.2595,-0.20623 2.7022,-0.46737 3.206,-0.58032 0.5038,-0.11294 1.99803,-0.4228 3.32051,-0.68858 2.45732,-0.49384 2.76427,-0.57068 7.328,-1.83427 1.44843,-0.40104 3.20028,-0.86673 3.89301,-1.03487 1.92133,-0.46636 6.69948,-1.93718 7.19593,-2.21508 0.24224,-0.13559 1.47884,-0.63993 2.748,-1.12074 1.26917,-0.48081 2.9774,-1.14733 3.79608,-1.48115 0.81867,-0.33382 1.79085,-0.72704 2.16039,-0.87383 0.36954,-0.14678 1.19394,-0.54298 1.83201,-0.88043 0.63805,-0.33746 1.70111,-0.87717 2.36235,-1.19937 0.66124,-0.32219 1.20225,-0.65537 1.20225,-0.74039 0,-0.15737 -0.54538,-1.04972 -2.63824,-4.31669 -0.64548,-1.0076 -2.14507,-3.34907 -3.33243,-5.20327 -1.18968,-1.85781 -2.31304,-3.37349 -2.50233,-3.37624 -0.18893,-0.003 -0.65265,0.20465 -1.0305,0.46087 -0.37785,0.25622 -1.15073,0.67889 -1.71751,0.93928 -0.56677,0.26039 -1.2366,0.64792 -1.4885,0.86116 -0.2519,0.21325 -1.02477,0.62604 -1.7175,0.91731 -0.69272,0.29127 -1.43934,0.62145 -1.65914,0.73373 -2.16982,1.1084 -7.01627,2.73938 -9.79087,3.29493 -3.54627,0.71006 -4.75606,0.99414 -5.725,1.34433 -0.99784,0.36063 -3.89855,0.95078 -8.104,1.64877 -1.11952,0.1858 -2.11071,0.38432 -2.20265,0.44114 -0.9345,0.57755 -21.736969,0.57526 -22.671799,-0.003 -0.0897,-0.0554 -1.07909,-0.25283 -2.198604,-0.43864 -4.205446,-0.69798 -7.106155,-1.28814 -8.103996,-1.64877 -0.968939,-0.35018 -2.178731,-0.63426 -5.725005,-1.34433 -2.774592,-0.55555 -7.621042,-2.18653 -9.790862,-3.29492 -0.21981,-0.11228 -0.96642,-0.44246 -1.65915,-0.73373 -0.69272,-0.29127 -1.4656,-0.70406 -1.7175,-0.91731 -0.2519,-0.21325 -0.92173,-0.60077 -1.4885,-0.86116 -0.56678,-0.26039 -1.33965,-0.68307 -1.7175,-0.93929 -0.37785,-0.25621 -0.84158,-0.46361 -1.0305,-0.46086 -0.18974,0.003 -1.30568,1.5141 -2.49293,3.37624 -1.18219,1.85419 -2.68306,4.19566 -3.33528,5.20326 -1.89712,2.93082 -2.6448,4.15114 -2.6448,4.31669 0,0.085 0.54101,0.4182 1.20225,0.74039 0.66124,0.3222 1.7243,0.86191 2.36236,1.19937 0.63806,0.33745 1.46246,0.73365 1.832,0.88043 0.36954,0.14679 1.34172,0.54001 2.1604,0.87383 0.81867,0.33382 2.56049,1.01279 3.8707,1.50883 1.31021,0.49604 2.49528,0.98525 2.6335,1.08713 0.13821,0.10187 1.79705,0.62728 3.6863,1.16756 1.88926,0.54028 4.05331,1.17473 4.80901,1.4099 2.337528,0.72741 6.760413,1.83467 9.160007,2.2932 1.259501,0.24067 2.432003,0.49107 2.605562,0.55644 1.053708,0.39689 6.212658,1.2066 8.386448,1.31628 0.629755,0.0318 5.936839,0.0427 11.793519,0.0242 8.65721,-0.0273 11.07675,-0.10369 12.93851,-0.40854 z m -16.32771,-2.24101 c -0.16605,-0.16605 -0.2748,-0.97113 -0.2748,-2.0343 0,-2.05537 0.0286,-2.03366 -2.69076,-2.03878 l -1.660254,-0.003 0,1.96172 0,1.96171 -0.62975,-0.0725 -0.62975,-0.0725 -0.0621,-4.53844 -0.0622,-4.53844 0.63465,0.0729 c 0.61858,0.0711 0.63754,0.11633 0.74914,1.78752 l 0.1145,1.71458 0.916004,0.16147 c 0.5038,0.0888 1.45702,0.16741 2.11826,0.17467 l 1.20225,0.0132 0,-1.7175 0,-1.7175 0.66053,0 0.66053,0 0.16668,4.33127 c 0.0917,2.3822 0.0975,4.44321 0.013,4.58001 -0.2045,0.33088 -0.88338,0.31644 -1.2259,-0.0261 z m 3.99812,0.10305 c -0.0578,-0.0945 -0.14042,-2.1297 -0.18356,-4.52276 l -0.0784,-4.351 1.37229,-0.1469 c 2.26942,-0.24292 4.0872,-0.2066 4.68026,0.0935 0.30798,0.15586 0.75994,0.6258 1.00436,1.04429 0.38562,0.66029 0.40902,0.87896 0.17689,1.65372 -0.165,0.55072 -0.56996,1.12352 -1.05686,1.4949 l -0.78937,0.60208 0.99065,1.29319 c 1.3993,1.82665 1.5985,2.24413 1.15244,2.4153 -0.84359,0.32372 -1.22767,0.0935 -2.26163,-1.35544 -1.26507,-1.77283 -1.88647,-2.22776 -2.90899,-2.12964 l -0.76046,0.073 -0.0662,2.00375 c -0.0642,1.94451 -0.0824,2.00375 -0.61624,2.00375 -0.30254,0 -0.59737,-0.0773 -0.65518,-0.17174 z m 5.15578,-5.93268 c 0.23007,-0.20821 0.4183,-0.54808 0.4183,-0.75527 0,-0.73243 -0.51285,-0.92631 -2.4503,-0.92631 l -1.9007,0 0,1.17861 0,1.1786 1.7572,-0.14854 c 1.14072,-0.0964 1.90396,-0.28135 2.1755,-0.52709 z m 6.60602,4.71702 c -2.4891,-1.05084 -3.06711,-5.12153 -1.10563,-7.78644 0.79894,-1.08546 2.21312,-1.82051 3.56095,-1.85087 1.43059,-0.0322 2.36149,0.48459 3.03667,1.6859 0.43364,0.77157 0.49043,1.16349 0.41778,2.88313 -0.0717,1.69631 -0.17661,2.13355 -0.71069,2.96112 -0.34463,0.53402 -1.02191,1.23253 -1.50505,1.55226 -0.99015,0.65525 -2.80913,0.92849 -3.69403,0.5549 z m 2.79852,-1.63189 c 1.04354,-0.39996 1.66227,-1.66655 1.66227,-3.40278 0,-2.39096 -1.02419,-3.46194 -2.84248,-2.97232 -1.49035,0.40131 -2.31708,1.69451 -2.36267,3.69576 -0.0326,1.43024 0.39828,2.38002 1.27483,2.81025 0.7184,0.3526 1.0576,0.33302 2.26805,-0.13091 z m -32.39166,1.40347 c -0.214995,-0.12535 -0.569105,-0.79324 -0.786911,-1.4842 -0.424452,-1.34652 -0.52532,-1.4105 -2.844373,-1.8042 l -0.816177,-0.13855 -0.397776,1.26188 c -0.36397,1.15465 -0.455165,1.2619 -1.073074,1.2619 -0.513121,0 -0.675299,-0.10554 -0.675299,-0.43944 0,-0.43254 2.852947,-8.44385 3.092176,-8.68308 0.06752,-0.0675 0.399489,-0.0254 0.737706,0.0935 0.539293,0.18966 0.746332,0.59635 1.682987,3.30589 0.587424,1.69929 1.128691,3.2442 1.202816,3.43312 0.233061,0.59402 1.070322,3.18584 1.070322,3.31328 0,0.2016 -0.774403,0.1236 -1.192397,-0.1201 z m -2.318082,-6.28845 -0.537715,-1.59405 -0.494907,1.32275 c -0.272196,0.72751 -0.494903,1.41587 -0.494903,1.52969 0,0.23099 1.912371,0.67763 2.005872,0.46847 0.03265,-0.073 -0.182603,-0.85013 -0.478347,-1.72686 z m 40.532182,5.23261 c -0.084,-0.084 -0.15266,-2.28852 -0.15266,-4.899 0,-4.11679 0.048,-4.76478 0.36223,-4.88534 0.91348,-0.35054 1.23532,-0.0876 3.22303,2.63276 l 2.02524,2.77176 0.0631,-3.57035 0.063,-3.57036 0.57737,-0.14491 c 0.31755,-0.0797 0.63607,-0.0862 0.70782,-0.0144 0.0718,0.0717 0.18489,2.34812 0.25142,5.0586 l 0.12095,4.92813 -0.62049,0.23591 c -0.9054,0.34424 -0.94491,0.32662 -1.65684,-0.73897 -0.35823,-0.53619 -1.26963,-1.82674 -2.02533,-2.8679 l -1.374,-1.89301 -0.0634,3.33391 -0.0634,3.33391 -0.58124,0.22099 c -0.69136,0.26285 -0.66437,0.2607 -0.85676,0.0683 z m -47.21648,-0.46001 c -0.303666,-0.0606 -0.866805,-0.81757 -1.641336,-2.2062 -1.333475,-2.39074 -1.742657,-2.83953 -2.777676,-3.04653 l -0.729224,-0.14585 0,2.20413 c 0,2.33462 -0.12168,2.55361 -1.04398,1.87897 -0.42146,-0.30828 -0.44032,-0.59048 -0.36343,-5.43875 0.0446,-2.81248 0.11291,-5.14756 0.1518,-5.18907 0.14252,-0.15211 4.825288,1.63595 5.461549,2.08543 0.668896,0.47253 1.504946,1.99905 1.514037,2.76443 0.0094,0.79145 -0.707194,1.93599 -1.388921,2.21837 l -0.674813,0.27952 0.471203,0.71486 c 0.508652,0.77168 2.05556,3.71802 2.05556,3.91515 0,0.12674 -0.272963,0.11765 -1.034769,-0.0345 z m -1.026233,-7.27052 c 0,-0.80048 -0.643039,-1.38094 -2.138628,-1.93049 -1.940925,-0.71318 -1.983375,-0.69688 -1.983375,0.76178 l 0,1.25311 1.202251,0.33548 c 2.310768,0.64482 2.919752,0.55724 2.919752,-0.41988 z m -12.319363,4.18984 c -1.21741,-0.60261 -2.00895,-1.6107 -2.31807,-2.95224 -0.13001,-0.56425 -0.2389,-2.9581 -0.24198,-5.31966 -0.005,-4.09002 0.0154,-4.29376 0.43604,-4.29376 1.02665,0 1.12699,0.43533 0.99264,4.30678 -0.0693,1.99641 -0.0556,4.00511 0.0305,4.46379 0.34725,1.85098 2.37117,3.06728 3.397,2.04145 0.42513,-0.42512 0.47714,-0.82101 0.56799,-4.32325 0.055,-2.12039 0.14046,-3.98345 0.1899,-4.14012 0.0697,-0.22095 0.22009,-0.22555 0.67012,-0.0205 l 0.58023,0.26437 0,3.96611 c 0,3.08552 -0.0806,4.16749 -0.36292,4.87313 -0.6566,1.641 -2.08612,2.05225 -3.94143,1.1339 z m 71.348596,-0.0144 c -0.34392,-0.2908 -0.79491,-0.94092 -1.00218,-1.44472 -0.45489,-1.10564 -0.50797,-3.91058 -0.10167,-5.37161 0.60576,-2.17822 2.48997,-4.04716 4.3289,-4.29381 0.76705,-0.10289 1.00883,-0.0289 1.49556,0.45787 0.87107,0.87107 1.01763,1.74485 0.37937,2.26168 -0.67983,0.5505 -0.74236,0.53648 -1.20075,-0.26909 -0.43666,-0.76738 -0.99883,-0.86722 -1.99177,-0.35375 -1.36602,0.7064 -2.25491,3.28253 -1.85686,5.38147 0.12718,0.67059 0.23123,1.25269 0.23123,1.29357 0,0.32578 1.13467,1.00817 1.67639,1.00817 0.87169,0 2.0906,-1.26052 2.37042,-2.45132 0.17835,-0.75898 0.29732,-0.87826 0.93835,-0.94073 0.7167,-0.0699 0.73073,-0.0536 0.59145,0.687 -0.25205,1.34023 -1.18767,3.02973 -2.0601,3.72003 -1.17603,0.93053 -2.90129,1.07371 -3.79834,0.31524 z m 7.61448,-2.07447 c 0.006,-0.62011 1.28603,-5.77571 2.25612,-9.08409 0.71472,-2.43749 0.95483,-2.81352 1.73088,-2.71073 0.35731,0.0473 0.67654,0.78347 1.66391,3.83707 2.2157,6.8524 2.13561,6.50214 1.53922,6.731 -0.77693,0.29814 -0.99667,0.11162 -1.38751,-1.17775 -0.57323,-1.89107 -0.55976,-1.88187 -2.12859,-1.45243 -0.74657,0.20437 -1.42733,0.4415 -1.5128,0.52697 -0.0855,0.0855 -0.30089,0.85679 -0.47873,1.71405 -0.30928,1.49091 -0.7261,2.13116 -1.38742,2.13116 -0.16485,0 -0.29764,-0.23186 -0.29508,-0.51525 z m 4.28911,-5.69562 c 0.61514,-0.2266 0.60586,-0.0976 0.13414,-1.86484 -0.44081,-1.65145 -0.87078,-2.30254 -1.07318,-1.62508 -0.20599,0.68947 -0.83571,3.52674 -0.83571,3.76536 0,0.21667 0.7583,0.099 1.77475,-0.27544 z m -91.718666,5.47156 c -0.7848,-0.37827 -1.39594,-1.54795 -1.56635,-2.99788 -0.1331,-1.13249 -0.10241,-1.30081 0.2372,-1.30081 0.75353,0 1.27598,0.45758 1.27598,1.11756 0,1.11229 1.33671,1.88341 1.73466,1.00069 0.0994,-0.22041 0.23921,-2.46056 0.31076,-4.97811 0.11318,-3.9828 0.17852,-4.58663 0.50303,-4.64869 0.20513,-0.0392 0.54004,0.0957 0.74425,0.29996 0.42089,0.42089 0.42953,0.74719 0.16662,6.29564 -0.17858,3.76867 -0.36106,4.59409 -1.14948,5.19942 -0.4462,0.34258 -1.55877,0.34861 -2.25667,0.0122 z m 5.32773,-19.92795 c -0.0833,-0.40934 -0.24817,-1.05341 -0.36633,-1.43126 -0.21723,-0.69461 -1.57412,-6.17193 -2.15575,-8.702 -0.17372,-0.7557 -0.59121,-2.40451 -0.92774,-3.664006 -0.33653,-1.259501 -0.70276,-2.753727 -0.81382,-3.320503 -0.11107,-0.566775 -0.35305,-1.545751 -0.53772,-2.175502 -0.18468,-0.62975 -0.80772,-3.102952 -1.38454,-5.496004 -0.57682,-2.393052 -1.30161,-5.278455 -1.61065,-6.412005 -0.30905,-1.133551 -0.76283,-2.936928 -1.00842,-4.007504 -0.24559,-1.070576 -0.81875,-3.389203 -1.27367,-5.152504 -0.45493,-1.763301 -1.02483,-4.030403 -1.26644,-5.038004 -0.2416,-1.007601 -0.6528,-2.656402 -0.91376,-3.664003 -0.26096,-1.007601 -0.6662,-2.656402 -0.90054,-3.664003 -0.69154,-2.973497 -3.65421,-14.82544 -3.89259,-15.572013 -0.12064,-0.37785 -0.53564,-2.232752 -0.92221,-4.122003 -0.38658,-1.889252 -0.80274,-3.613942 -0.9248,-3.832646 -0.12207,-0.218704 -0.22194,-0.553616 -0.22194,-0.74425 0,-0.190633 -0.15457,-0.346607 -0.3435,-0.346607 -0.29566,0 -0.3435,0.755349 -0.3435,5.424145 0,4.592478 0.0663,5.672172 0.43226,7.041756 0.39772,1.488362 0.6925,2.66632 1.52229,6.083113 0.16824,0.692725 0.56133,2.238477 0.87355,3.435003 0.31222,1.196526 1.03347,3.978878 1.60279,6.183005 0.56932,2.204127 1.31255,5.038004 1.65164,6.297505 0.33908,1.259501 0.79343,3.062877 1.00967,4.007503 0.21623,0.944626 0.66261,2.696477 0.99194,3.893003 0.65224,2.369733 2.01396,7.739373 2.70041,10.648509 0.23776,1.007601 0.59269,2.398777 0.78873,3.091503 0.19604,0.692725 0.59927,2.290002 0.89608,3.549503 0.29681,1.259501 0.90288,3.681178 1.34682,5.381499 0.44395,1.70033 1.1796,4.53421 1.63478,6.29751 1.19346,4.62324 1.73982,6.3891 2.03593,6.58025 0.14334,0.0925 0.7583,0.16982 1.36657,0.17175 l 1.10595,0.003 -0.15149,-0.74425 z m 25.946299,-0.687 0.06868,-1.31676 -10.646423,0 c -7.599416,0 -10.691706,-0.0733 -10.804646,-0.25601 -0.2299,-0.37199 -0.85972,-2.91782 -1.91951,-7.75899 -0.23436,-1.07058 -0.68349,-2.977006 -0.99807,-4.236507 -0.54339,-2.17565 -1.2098,-5.02937 -2.24603,-9.618007 -0.25598,-1.133551 -0.61207,-2.562325 -0.79131,-3.175049 -0.17924,-0.612727 -0.32589,-1.296482 -0.32589,-1.519455 0,-0.222973 -0.14665,-0.906729 -0.32589,-1.519456 -0.17924,-0.612724 -0.54734,-2.093022 -0.81801,-3.289548 -0.27067,-1.196526 -0.74279,-3.257528 -1.04915,-4.580004 -0.30637,-1.322476 -0.7653,-3.331953 -1.01986,-4.465504 -0.25456,-1.133551 -0.81619,-3.555228 -1.24806,-5.381504 -0.43187,-1.826277 -0.99912,-4.247954 -1.26055,-5.381505 -0.26144,-1.13355 -0.67096,-2.885402 -0.91006,-3.893003 -0.2391,-1.007601 -0.54998,-2.347252 -0.69084,-2.977002 -0.14087,-0.629751 -0.40585,-1.814827 -0.58886,-2.633502 -0.18301,-0.818676 -0.58329,-2.519002 -0.88951,-3.778503 -0.30622,-1.259501 -0.87353,-3.681178 -1.2607,-5.381505 -0.38717,-1.700326 -0.80038,-3.400653 -0.91824,-3.778503 -0.11785,-0.37785 -0.32899,-1.3053 -0.46919,-2.061001 -0.46589,-2.511321 -1.26832,-5.267004 -1.5337,-5.267004 -0.52709,0 -3.27632,2.651946 -3.2796,3.163541 -0.003,0.422027 0.55762,2.785802 3.23996,13.667972 0.1397,0.566775 0.59193,2.421677 1.00495,4.122003 0.41301,1.700327 1.07305,4.379629 1.46674,5.954005 0.39369,1.574376 0.86366,3.480803 1.04438,4.236504 0.18072,0.7557 1.0451,4.310928 1.92086,7.900506 0.87575,3.589578 2.12332,8.742082 2.77237,11.450009 0.64905,2.707928 1.64731,6.778406 2.21835,9.045508 0.57105,2.267102 1.27132,5.100979 1.55616,6.297505 1.58105,6.641479 2.25991,9.394379 3.10591,12.595009 0.51602,1.95223 0.9942,3.93684 1.06263,4.41025 l 0.1244,0.86075 12.170016,-0.0592 12.170016,-0.0592 0.06868,-1.31676 z m 55.539987,0.5725 c 0.0683,-0.47232 0.55264,-2.45603 1.07627,-4.40826 0.52364,-1.95222 1.29369,-4.9922 1.71124,-6.7555 1.58037,-6.673983 1.93485,-8.138144 3.04931,-12.595014 0.62989,-2.519003 1.67885,-6.795581 2.33104,-9.503508 0.65217,-2.707927 1.85277,-7.654332 2.66799,-10.992009 0.81521,-3.337678 1.83995,-7.562731 2.2772,-9.389008 0.43725,-1.826276 1.04074,-4.247953 1.34108,-5.381504 0.75457,-2.847911 1.71074,-6.807592 2.07369,-8.587507 0.16694,-0.818676 0.87898,-3.731881 1.58231,-6.473788 0.70333,-2.741907 1.27878,-5.234217 1.27878,-5.538467 0,-0.394008 -0.4337,-0.936313 -1.50728,-1.884717 -0.829,-0.732348 -1.625,-1.33154 -1.76889,-1.33154 -0.28598,0 -0.83768,1.831424 -1.51762,5.038004 -0.24037,1.133551 -0.54212,2.473201 -0.67054,2.977002 -0.12843,0.5038 -0.5067,2.101076 -0.84059,3.549503 -0.3339,1.448426 -0.91009,3.921628 -1.28042,5.496004 -0.37033,1.574376 -0.8774,3.738428 -1.12681,4.809004 -0.24941,1.070576 -0.80286,3.440728 -1.22989,5.267004 -0.42703,1.826277 -1.2039,5.175405 -1.72638,7.442506 -0.52248,2.267102 -1.14461,4.946404 -1.38252,5.954005 -0.23792,1.007601 -0.69859,3.017078 -1.02372,4.465504 -0.32513,1.448426 -0.75087,3.23321 -0.94607,3.966185 -0.19521,0.732974 -0.44623,1.815 -0.55783,2.404502 -0.1116,0.589501 -0.41758,1.947745 -0.67996,3.018321 -0.26237,1.070576 -0.676,2.822427 -0.91917,3.893003 -0.24317,1.070576 -0.60264,2.616327 -0.79883,3.435003 -0.19618,0.818675 -0.54875,2.364427 -0.78349,3.435002 -0.23474,1.070576 -0.65504,2.822428 -0.93401,3.893004 -0.27896,1.070576 -0.69737,2.822426 -0.9298,3.893006 -1.01314,4.66648 -1.68417,7.38387 -1.91601,7.75899 -0.11293,0.18274 -3.20222,0.25601 -10.79321,0.25601 l -10.635,0 0,1.22134 c 0,0.67173 0.0687,1.29003 0.15267,1.374 0.084,0.084 5.58632,0.15267 12.22746,0.15267 l 12.07479,0 z m 3.7154,0.68349 c 0.3397,-0.23617 0.64383,-1.13309 1.45473,-4.29025 1.21687,-4.73772 2.52943,-9.796555 2.88169,-11.106507 0.43051,-1.600917 1.87318,-7.370557 2.40494,-9.618008 0.6506,-2.749669 1.78989,-7.229909 2.56226,-10.076008 0.39307,-1.448426 0.89201,-3.406378 1.10876,-4.351004 0.21675,-0.944626 0.67153,-2.748002 1.01061,-4.007503 0.33908,-1.259501 1.07779,-4.080706 1.64157,-6.26934 0.56379,-2.188638 1.49454,-5.795391 2.06834,-8.015007 0.5738,-2.219619 1.23409,-4.860069 1.46731,-5.86767 0.23321,-1.0076 0.53231,-2.191996 0.66466,-2.63199 0.13899,-0.462038 0.24064,-3.098194 0.24064,-6.240255 0,-4.683125 -0.0478,-5.440265 -0.3435,-5.440265 -0.18892,0 -0.3435,0.200018 -0.3435,0.444484 0,0.244467 -0.0857,0.497463 -0.19049,0.562213 -0.10476,0.06475 -0.33082,0.86947 -0.50234,1.788267 -0.17152,0.918795 -0.32408,1.722063 -0.33902,1.785038 -0.0149,0.06298 -0.15533,0.732801 -0.31198,1.488502 -0.15664,0.7557 -0.42937,1.889251 -0.60607,2.519002 -0.44583,1.58897 -1.92575,7.497466 -2.29434,9.160007 -0.16754,0.755701 -0.5236,2.198402 -0.79124,3.206003 -0.26764,1.007601 -0.67937,2.656402 -0.91496,3.664003 -0.47436,2.028909 -1.99468,8.212288 -2.19587,8.931007 -0.39759,1.420287 -1.78723,6.920521 -2.16963,8.587507 -0.24559,1.070576 -0.69938,2.873953 -1.00842,4.007504 -0.30904,1.13355 -1.03136,4.018953 -1.60515,6.412005 -0.5738,2.393052 -1.13739,4.660154 -1.25243,5.038004 -0.11505,0.37785 -0.52561,2.026652 -0.91237,3.664003 -0.38676,1.637351 -0.80379,3.286148 -0.92672,3.663998 -0.12294,0.37785 -0.37526,1.35683 -0.56073,2.17551 -0.53656,2.36854 -1.94142,8.064 -2.17469,8.8165 -0.11714,0.37785 -0.28115,1.02192 -0.36447,1.43126 l -0.15149,0.74425 1.10595,-0.004 c 0.60827,-0.002 1.21485,-0.0792 1.34795,-0.17175 z m -45.2667,-2.32273 c 0.26304,-0.16659 0.289,-1.05729 0.15173,-5.20625 -0.0911,-2.7529 -0.23439,-5.07791 -0.31845,-5.16668 -0.0841,-0.0888 -1.84061,-0.17573 -3.90344,-0.19324 -2.917814,-0.0248 -3.793864,0.0365 -3.945454,0.27591 -0.32665,0.51588 -1.576325,4.69468 -1.575115,5.26703 6.9e-4,0.29519 -0.17608,1.03112 -0.39267,1.63541 -0.64694,1.80491 -0.54491,1.85845 3.797375,1.9928 l 3.700744,0.1145 0.69482,0.74425 c 0.70176,0.75167 1.20997,0.90389 1.79046,0.53627 z m 4.90318,-0.59352 0.82528,-0.8015 3.53281,0 c 3.813,0 4.23969,-0.12902 3.97159,-1.20093 -0.071,-0.28411 -0.24552,-1.03182 -0.3877,-1.66157 -0.35245,-1.56111 -1.38978,-5.15044 -1.67109,-5.78226 -0.22474,-0.50474 -0.30774,-0.51525 -4.07215,-0.51525 -2.1135,0 -3.88986,0.0773 -3.94746,0.17175 -0.0576,0.0945 -0.18073,2.42413 -0.27361,5.17703 -0.14006,4.15152 -0.11474,5.03956 0.14847,5.20625 0.57562,0.36454 1.03826,0.21801 1.87386,-0.59352 z m -18.548998,-2.57628 c 0.134425,-1.96712 0.388045,-3.04524 1.415251,-6.01609 0.45634,-1.31982 0.879198,-2.554241 0.939678,-2.743166 0.0734,-0.229186 -0.17814,-0.470344 -0.755755,-0.724651 -0.476146,-0.209633 -1.329444,-0.5866 -1.89622,-0.837705 -0.566775,-0.251103 -1.707123,-0.749412 -2.534107,-1.107351 -0.826981,-0.357937 -1.754432,-0.829185 -2.061001,-1.047216 l -0.557396,-0.39642 0.759479,-0.663471 c 0.417713,-0.364909 1.097209,-0.845351 1.509991,-1.067649 l 0.750511,-0.404176 1.352512,0.904532 c 1.885698,1.261116 3.891626,2.223324 4.304616,2.064845 0.19124,-0.07338 0.56817,-0.565576 0.83763,-1.09376 0.77603,-1.521141 2.604815,-3.907368 3.718235,-4.851632 1.033664,-0.876609 4.355994,-2.673701 4.954514,-2.679955 0.17901,-0.0018 0.51392,-0.173946 0.74426,-0.382394 0.39184,-0.354609 0.41878,-0.94393 0.41878,-9.160007 l 0,-8.781015 1.2595,0 1.2595,0 0,8.741226 c 0,7.81244 0.0403,8.785723 0.37899,9.160007 0.20845,0.230331 0.54336,0.420312 0.74425,0.422183 0.63051,0.0059 3.92689,1.774717 4.99431,2.679955 1.11342,0.944264 2.9422,3.330491 3.71823,4.851632 0.26946,0.528184 0.64639,1.020377 0.83763,1.09376 0.41185,0.158044 2.41732,-0.802717 4.29146,-2.055914 l 1.33936,-0.895601 0.7952,0.424637 c 0.43736,0.233549 1.12278,0.709972 1.52314,1.058716 l 0.72795,0.634081 -0.5574,0.39642 c -0.30657,0.218031 -1.23402,0.689279 -2.061,1.047216 -0.82699,0.357939 -1.91581,0.835367 -2.41961,1.060955 -0.5038,0.225586 -1.35556,0.602553 -1.8928,0.837704 -0.66013,0.288941 -0.94226,0.538908 -0.87025,0.771048 0.0586,0.188925 0.47992,1.423346 0.93626,2.743166 1.0272,2.97085 1.28082,4.04897 1.41525,6.01609 l 0.10562,1.54575 9.80018,0 c 7.5737,0 9.84865,-0.065 10.01351,-0.28625 0.25326,-0.33981 1.03482,-3.21723 1.57059,-5.78225 0.21046,-1.0076 0.51884,-2.29573 0.68528,-2.86251 0.16645,-0.56677 0.36989,-1.391171 0.45209,-1.831996 0.15472,-0.829719 1.16353,-5.230566 2.51971,-10.99201 0.42988,-1.826276 0.94723,-4.093378 1.14965,-5.038004 0.20243,-0.944625 0.5033,-2.232751 0.66862,-2.862502 0.16531,-0.629751 0.47502,-1.969402 0.68822,-2.977002 0.41311,-1.952323 0.77897,-3.53135 2.04279,-8.816508 0.4367,-1.826276 1.21632,-5.175404 1.73247,-7.442506 0.9548,-4.193813 2.04842,-8.93316 3.2498,-14.083511 0.36724,-1.574377 1.08831,-4.665879 1.60237,-6.870006 0.51407,-2.204127 1.2408,-5.089528 1.61496,-6.412004 0.94477,-3.339229 1.16167,-4.323753 1.02885,-4.669887 -0.0825,-0.215043 -0.54688,-0.279296 -1.65466,-0.228954 -1.19743,0.05441 -1.73962,0.20212 -2.43771,0.664095 l -0.89777,0.594116 -11.60901,-0.08757 c -6.38496,-0.04816 -13.92764,-0.155619 -16.76151,-0.23879 -2.83388,-0.08317 -7.40711,-0.198914 -10.16273,-0.257208 l -5.01023,-0.105991 -1.37873,1.191843 c -0.75831,0.655515 -1.72402,1.516453 -2.14603,1.913196 l -0.7673,0.72135 0,7.236406 0,7.236406 -1.2595,0 -1.2595,0 0,-7.236406 0,-7.236406 -0.7673,-0.72135 c -0.42201,-0.396743 -1.38173,-1.252295 -2.1327,-1.901224 l -1.3654,-1.179875 -4.794569,0.08454 c -2.637,0.0465 -7.216231,0.157559 -10.176059,0.246807 -2.959827,0.08925 -10.605558,0.200973 -16.990518,0.248273 l -11.60901,0.086 -0.89777,-0.594116 c -0.69809,-0.461975 -1.24028,-0.609681 -2.43771,-0.664096 -1.10778,-0.05034 -1.57214,0.01392 -1.65466,0.228955 -0.13282,0.346134 0.0841,1.330658 1.02885,4.669886 0.37416,1.322476 1.1009,4.207878 1.61496,6.412005 0.51406,2.204127 1.23513,5.295629 1.60238,6.870006 1.20138,5.150351 2.29499,9.889698 3.2498,14.083511 0.51615,2.267102 1.29576,5.61623 1.73247,7.442506 1.26381,5.285158 1.62967,6.864185 2.04278,8.816508 0.21321,1.0076 0.52417,2.347251 0.69104,2.977002 0.16686,0.629751 0.52588,2.175502 0.79782,3.435003 0.27194,1.259501 0.78831,3.526603 1.14749,5.038004 0.35919,1.511401 1.0246,4.396804 1.47871,6.412005 0.4541,2.015202 1.0219,4.436879 1.26178,5.381509 0.23989,0.94462 0.60217,2.49037 0.80507,3.435 0.55344,2.57653 1.31161,5.34486 1.55225,5.66775 0.16487,0.22122 2.43981,0.28625 10.013514,0.28625 l 9.800175,0 z M 130.77184,64.805706 c -0.9722,-0.202899 -1.95031,-1.243283 -2.27788,-2.422907 -0.13302,-0.479024 -0.24243,-2.64857 -0.24314,-4.821209 l -0.001,-3.950253 0.687,0 0.687,0 0,3.635377 c 0,4.10661 0.0957,4.837149 0.72137,5.508769 0.60496,0.649342 2.02925,0.645305 2.62089,-0.0074 0.38631,-0.426208 0.44934,-0.97002 0.55074,-4.751754 l 0.1145,-4.270464 0.62975,-0.07246 0.62975,-0.07246 0,4.388855 c 0,4.62457 -0.1383,5.379022 -1.15464,6.298802 -0.55417,0.501517 -1.9354,0.751816 -2.96407,0.537133 z M 70.999484,64.656414 c -1.38019,-0.673297 -2.07991,-1.577992 -2.63464,-3.406462 -0.43356,-1.42906 -0.42817,-2.279361 0.0259,-4.086994 0.64997,-2.587547 2.34487,-3.973176 4.55523,-3.724036 1.17588,0.132539 1.98266,0.689268 2.61803,1.806594 0.60109,1.057056 0.59919,1.612157 -0.007,1.990605 -0.56247,0.351268 -0.69556,0.257293 -1.02178,-0.721467 -0.1625,-0.487544 -0.52279,-0.866913 -1.09138,-1.14916 -2.50888,-1.245404 -4.72888,1.967938 -3.73102,5.400466 0.46737,1.607702 1.18894,2.273337 2.59575,2.394529 1.5454,0.133133 2.58373,-0.52325 2.58373,-1.633312 l 0,-0.7929 -1.20225,-0.06922 -1.20226,-0.06922 0,-0.8015 0,-0.801501 1.88926,-0.06651 1.88925,-0.06651 0,2.16552 0,2.16552 -0.9575,0.758352 c -0.835,0.66133 -1.14995,0.7658 -2.46175,0.816562 -0.82734,0.03201 -1.65883,-0.0172 -1.84776,-0.109359 z m 9.847014,-2.34654 c 0,-2.099888 -0.05587,-2.394655 -0.661967,-3.492253 -1.238657,-2.243137 -2.544036,-4.824101 -2.544036,-5.030007 0,-0.112913 0.334913,-0.173005 0.744251,-0.133537 0.684424,0.06599 0.829857,0.236825 1.809213,2.125165 0.58573,1.129374 1.15856,2.084605 1.27296,2.122738 0.114399,0.03813 0.717192,-0.911327 1.339539,-2.109909 1.012306,-1.949605 1.197902,-2.179319 1.761293,-2.179988 0.404368,-4.58e-4 0.62975,0.120853 0.62975,0.339017 0,0.186868 -0.669825,1.619716 -1.488501,3.184101 l -1.488501,2.84434 0,2.311903 0,2.311902 -0.687001,0 -0.687,0 z m 6.236076,-3.130462 0.06143,-5.453575 1.016282,0 1.016282,0 0.648962,2.748002 c 0.932537,3.948799 1.1389,4.694666 1.298488,4.693196 0.07809,-6.87e-4 0.328508,-0.799357 0.556473,-1.774751 0.227967,-0.975395 0.631903,-2.680203 0.89764,-3.788463 l 0.483153,-2.015018 0.934368,0.06852 0.93436,0.06852 0.0614,5.438754 0.0614,5.438755 -0.69115,0 -0.69114,0 0,-3.219519 c 0,-1.770734 -0.08915,-3.16442 -0.198111,-3.097078 -0.10896,0.06734 -0.322072,0.752533 -0.473583,1.522649 -0.151511,0.770117 -0.462233,2.13804 -0.690491,3.039829 -0.407897,1.61149 -0.428604,1.6408 -1.206978,1.70849 l -0.791958,0.06887 -0.413038,-1.786373 c -0.227182,-0.982509 -0.597267,-2.507728 -0.822422,-3.389379 l -0.409374,-1.603001 -0.07328,3.320503 -0.07328,3.320502 -0.74843,0.07207 -0.74843,0.07207 z m 10.480942,-0.07207 0,-5.496004 0.68789,0 c 0.66066,0 0.76265,0.149914 2.576254,3.786811 l 1.88837,3.786809 0.1145,-3.729559 0.1145,-3.729561 0.62975,-0.07246 0.62975,-0.07246 0,5.511215 0,5.511215 -0.65091,0 c -0.61229,0 -0.76513,-0.226729 -2.57625,-3.821498 l -1.925354,-3.821501 -0.0628,3.821501 -0.0628,3.821498 -0.68147,0 -0.68146,0 0,-5.496005 z m 8.473014,5.388789 c 0,-0.07493 0.19115,-0.725521 0.42479,-1.445761 0.23363,-0.72024 0.91311,-2.855277 1.50996,-4.744529 1.5067,-4.769327 1.47371,-4.694503 2.06949,-4.694503 0.45425,0 0.61326,0.311291 1.37447,2.690752 0.47344,1.479913 1.26029,3.903814 1.74855,5.386446 0.48826,1.482632 0.88774,2.744995 0.88774,2.805252 0,0.06026 -0.36067,0.109559 -0.8015,0.109559 -0.53024,0 -0.8015,-0.107353 -0.8015,-0.317205 0,-0.174461 -0.17153,-0.848315 -0.38118,-1.497455 l -0.38117,-1.180251 -1.73654,0.0662 -1.73654,0.0662 -0.36195,1.374001 c -0.33855,1.285142 -0.40893,1.378643 -1.08829,1.445761 -0.39948,0.03947 -0.72633,0.01045 -0.72633,-0.06448 z m 5.02996,-4.873539 c -0.0261,-0.556919 -0.86816,-3.135195 -1.04246,-3.191839 -0.11495,-0.03736 -0.42335,0.704169 -0.68534,1.647833 l -0.47634,1.715757 1.10609,0 c 0.60835,0 1.10247,-0.07729 1.09805,-0.171751 z m 3.98366,4.636741 c -0.20732,-0.540278 0.0628,-1.263973 1.02546,-2.747489 1.76646,-2.722157 3.70093,-5.825357 3.70093,-5.936871 0,-0.06259 -0.90169,-0.143576 -2.00375,-0.179969 l -2.00375,-0.06616 -0.0715,-0.865497 -0.0715,-0.865497 3.04847,0.064 3.04848,0.064 0.0745,0.651329 c 0.0576,0.50342 -0.47542,1.524156 -2.34726,4.494889 -1.33199,2.113958 -2.42179,3.907622 -2.42179,3.985924 0,0.0783 1.13355,0.142365 2.519,0.142365 l 2.519,0 0,0.801501 0,0.801501 -3.44219,0 c -2.85075,0 -3.46487,-0.05911 -3.5742,-0.344014 z m 8.84839,-5.151991 0,-5.496004 0.687,0 0.687,0 0,5.496004 0,5.496005 -0.687,0 -0.687,0 z m 13.84869,5.219908 c -0.0647,-0.168723 -0.0899,-2.623064 -0.056,-5.45409 l 0.0618,-5.147322 0.96031,-0.06979 c 0.93688,-0.06808 0.96609,-0.04853 1.19788,0.801501 0.24786,0.909043 1.00339,4.132004 1.32141,5.63697 0.22641,1.071444 0.56051,1.189473 0.77085,0.27232 0.42794,-1.865958 1.19843,-5.133206 1.39059,-5.896755 0.20932,-0.831717 0.24828,-0.85875 1.2378,-0.85875 l 1.02167,0 0,5.496004 0,5.496005 -0.687,0 -0.687,0 0,-3.077987 c 0,-1.692893 -0.0857,-3.130969 -0.19049,-3.195721 -0.10477,-0.06475 -0.31143,0.470181 -0.45924,1.188738 -0.14781,0.718557 -0.44907,2.130867 -0.66946,3.138468 l -0.40072,1.832001 -0.84983,0.07061 c -0.97135,0.08071 -0.78642,0.487555 -1.80159,-3.963618 l -0.62673,-2.748002 -0.0772,3.320503 -0.0772,3.320502 -0.63106,0.07259 c -0.3729,0.04289 -0.67921,-0.0529 -0.74877,-0.234183 z m -28.5047,-11.24762 c 0,-0.04054 0.16426,-0.555788 0.36503,-1.145001 0.33889,-0.994591 0.42087,-1.071295 1.145,-1.071295 0.42898,0 0.77997,0.06648 0.77997,0.147737 0,0.08126 -0.28339,0.596324 -0.62975,1.144591 -0.43847,0.694077 -0.78625,0.99698 -1.145,0.997264 -0.28339,2.27e-4 -0.51525,-0.03276 -0.51525,-0.0733 z m -5.35414,44.453061 1.18577,-0.275682 -0.0341,-2.987571 -0.0341,-2.987571 -0.85014,-0.07056 c -0.7597,-0.06305 -0.98117,0.05876 -2.08178,1.145001 -0.67739,0.668557 -1.34667,1.432371 -1.48726,1.697361 -0.1406,0.264989 -0.620744,0.918803 -1.066984,1.452917 -0.89467,1.070846 -1.02028,1.699337 -0.4106,2.054443 0.55274,0.32194 3.343674,0.30539 4.779124,-0.02834 z m 10.1782,0.03862 c 0.65396,-0.34999 0.54255,-0.974393 -0.3684,-2.064729 -0.44624,-0.534114 -0.92638,-1.187928 -1.06698,-1.452917 -0.1406,-0.26499 -0.80987,-1.028804 -1.48727,-1.697361 -1.1006,-1.08624 -1.32208,-1.208056 -2.08177,-1.145001 l -0.85014,0.07056 -0.0636,2.98895 -0.0636,2.988949 0.97958,0.240107 c 1.31322,0.321885 4.45046,0.366691 5.00214,0.07144 z M 71.165854,12.656573 c -0.35879,-0.141828 -0.29207,-0.320462 0.5725,-1.532593 1.65522,-2.3206332 2.78688,-3.7706812 2.94273,-3.7706812 0.0819,0 0.9035,1.141345 1.82586,2.536323 1.350726,2.0428242 1.613016,2.5768282 1.348039,2.7444962 -0.38188,0.241641 -6.086189,0.26079 -6.689129,0.02245 z m 64.197206,-0.02246 c -0.26497,-0.167668 -0.003,-0.701672 1.34804,-2.7444962 0.92237,-1.394977 1.744,-2.536322 1.82586,-2.536322 0.15586,0 1.28751,1.450048 2.94273,3.7706812 0.86457,1.21213 0.9313,1.390765 0.5725,1.532593 -0.60294,0.238334 -6.30724,0.219185 -6.68913,-0.02246 z M 103.51753,6.3870638 c 0,-0.354115 2.82914,-4.300942 3.08013,-4.296968 0.26009,0.0041 3.10287,3.929257 3.10287,4.284265 0,0.124153 -1.31127,0.2156 -3.0915,0.2156 -1.70033,0 -3.0915,-0.0913 -3.0915,-0.202897 z"
       id="path2994"
       inkscape:connector-curvature="0"
       sodipodi:nodetypes="cssssssssccssscssssscsscscsssscccccccccccsssssscscssccccccccscssssscccccccccccsssscscssccsssssssssccsssssssscsccccssscsscccssscsscsssssccssscsssccssscccssssssccscccscccccccccsccsccccccccccscsccsscssscccscsssccccssscscsssssscssssccsssccscssscsscscscscccscscssscccscccsccssscssscssccssscsscscsscsscscscccccsccssssssscssccscssscssscssssscssscsccssccccssccssssssscscssscssssssssssscccccccscsssssssssssscssscsscssssssssscccccccssssssssssssscssssssscssscssscscssscccssssssssscssscsccssscsssscscccscccccsccsccscscscscscscssssscsssscsscscssccscccsccsscscsccsssscsscscscssccsssssscsscssscsscccccccsscssscsscsssssscssscssscscsccccsccscccsscccsssscssssscccccccccssccssssscscsscccccsccccscsscccccccssssscssccccccccsscccccccsscccccccccsssssssscccssccccscsccsssccccccssscccsccccccccccccccscsssscccccscsscssccccccsssssssccccsscsscccsssscccsccssssssccssscscsss" />
  </g>
</svg>
